<svg width="7" height="7" viewBox="0 0 7 7" fill="none" xmlns="http://www.w3.org/2000/svg">
<path fill-rule="evenodd" clip-rule="evenodd" d="M3.43007 0.878235C2.65632 0.878235 2.55922 0.881618 2.25532 0.895448C1.95202 0.909337 1.74499 0.957355 1.56384 1.02781C1.37646 1.10058 1.21751 1.19792 1.05915 1.35634C0.900673 1.51469 0.803331 1.67365 0.730325 1.86097C0.659693 2.04218 0.611616 2.24927 0.597964 2.55245C0.584372 2.85635 0.580811 2.95351 0.580811 3.72726C0.580811 4.50101 0.584253 4.59781 0.598023 4.90171C0.611972 5.20501 0.65999 5.41204 0.730384 5.59319C0.803213 5.78057 0.900554 5.93953 1.05897 6.09788C1.21727 6.25636 1.37622 6.35394 1.56349 6.42671C1.74476 6.49716 1.95184 6.54518 2.25509 6.55907C2.55898 6.5729 2.65603 6.57628 3.42972 6.57628C4.20352 6.57628 4.30033 6.5729 4.60423 6.55907C4.90753 6.54518 5.1148 6.49716 5.29606 6.42671C5.48339 6.35394 5.6421 6.25636 5.8004 6.09788C5.95888 5.93953 6.05622 5.78057 6.12923 5.59325C6.19926 5.41204 6.24734 5.20495 6.26159 4.90177C6.27524 4.59787 6.2788 4.50101 6.2788 3.72726C6.2788 2.95351 6.27524 2.85641 6.26159 2.55251C6.24734 2.24921 6.19926 2.04218 6.12923 1.86103C6.05622 1.67365 5.95888 1.51469 5.8004 1.35634C5.64192 1.19786 5.48345 1.10052 5.29589 1.02781C5.11426 0.957355 4.90711 0.909337 4.60381 0.895448C4.29991 0.881618 4.20317 0.878235 3.42918 0.878235H3.43007ZM3.17448 1.39164C3.25033 1.39153 3.33497 1.39164 3.43006 1.39164C4.19075 1.39164 4.28091 1.39438 4.5813 1.40803C4.85908 1.42073 5.00984 1.46714 5.11027 1.50614C5.24323 1.55778 5.33802 1.61951 5.43767 1.71922C5.53739 1.81894 5.59912 1.91391 5.65087 2.04686C5.68987 2.14717 5.73634 2.29793 5.74899 2.57571C5.76264 2.87605 5.76561 2.96627 5.76561 3.7266C5.76561 4.48693 5.76264 4.57715 5.74899 4.87749C5.73629 5.15527 5.68987 5.30603 5.65087 5.40634C5.59924 5.53929 5.53739 5.63396 5.43767 5.73362C5.33796 5.83333 5.24329 5.89506 5.11027 5.9467C5.00996 5.98587 4.85908 6.03217 4.5813 6.04487C4.28097 6.05852 4.19075 6.06149 3.43006 6.06149C2.66931 6.06149 2.57915 6.05852 2.27882 6.04487C2.00104 6.03205 1.85028 5.98564 1.74979 5.94664C1.61683 5.895 1.52187 5.83327 1.42215 5.73356C1.32243 5.63384 1.26071 5.53911 1.20895 5.4061C1.16995 5.30579 1.12348 5.15503 1.11084 4.87725C1.09718 4.57691 1.09445 4.48669 1.09445 3.72589C1.09445 2.96508 1.09718 2.87533 1.11084 2.575C1.12354 2.29722 1.16995 2.14646 1.20895 2.04603C1.26059 1.91308 1.32243 1.81811 1.42215 1.71839C1.52187 1.61868 1.61683 1.55695 1.74979 1.50519C1.85022 1.46602 2.00104 1.41972 2.27882 1.40696C2.54164 1.39509 2.64349 1.39153 3.17448 1.39093V1.39164ZM4.95085 1.8647C4.7621 1.8647 4.60896 2.01766 4.60896 2.20647C4.60896 2.39521 4.7621 2.54835 4.95085 2.54835C5.13959 2.54835 5.29273 2.39521 5.29273 2.20647C5.29273 2.01772 5.13959 1.8647 4.95085 1.8647ZM3.43008 2.26416C2.62208 2.26416 1.96698 2.91926 1.96698 3.72725C1.96698 4.53525 2.62208 5.19005 3.43008 5.19005C4.23807 5.19005 4.89293 4.53525 4.89293 3.72725C4.89293 2.91926 4.23807 2.26416 3.43008 2.26416ZM3.43007 2.77758C3.95452 2.77758 4.37974 3.20273 4.37974 3.72725C4.37974 4.25171 3.95452 4.67693 3.43007 4.67693C2.90555 4.67693 2.48039 4.25171 2.48039 3.72725C2.48039 3.20273 2.90555 2.77758 3.43007 2.77758Z" fill="white"/>
</svg>
