<svg width="7" height="7" viewBox="0 0 7 7" fill="none" xmlns="http://www.w3.org/2000/svg">
<path fill-rule="evenodd" clip-rule="evenodd" d="M6.30443 3.72328C6.30443 3.91595 6.28482 4.10836 6.24629 4.29591C6.20872 4.479 6.15308 4.65876 6.08018 4.83059C6.00896 4.99939 5.92062 5.16205 5.81739 5.31375C5.7157 5.46448 5.59856 5.6059 5.46987 5.73481C5.34091 5.86317 5.19901 5.97999 5.04835 6.08211C4.89615 6.18462 4.73326 6.27283 4.56436 6.34438C4.39227 6.4169 4.2121 6.47246 4.02917 6.50996C3.84137 6.54859 3.64826 6.56831 3.45531 6.56831C3.26222 6.56831 3.06912 6.54859 2.88159 6.50996C2.69838 6.47246 2.51822 6.4169 2.34626 6.34438C2.17738 6.27283 2.01432 6.18462 1.86213 6.08211C1.71147 5.98 1.56957 5.86317 1.44088 5.73481C1.31206 5.6059 1.19492 5.46448 1.09309 5.31375C0.990416 5.16205 0.901931 4.99938 0.830429 4.83059C0.757522 4.65876 0.701744 4.47899 0.664042 4.29591C0.625927 4.10836 0.606445 3.91595 0.606445 3.72328C0.606445 3.53046 0.625915 3.33765 0.664053 3.15051C0.701755 2.96741 0.757534 2.78738 0.830441 2.61582C0.901942 2.4469 0.990428 2.28409 1.0931 2.13239C1.19493 1.98153 1.31207 1.84038 1.44089 1.71132C1.56958 1.58296 1.71148 1.46642 1.86214 1.36445C2.01434 1.26151 2.17739 1.17331 2.34627 1.10162C2.51823 1.02895 2.69838 0.973251 2.8816 0.936026C3.06913 0.897688 3.26223 0.878235 3.45532 0.878235C3.64827 0.878235 3.84137 0.897688 4.02918 0.936026C4.21211 0.973262 4.39227 1.02896 4.56437 1.10162C4.73326 1.17329 4.89616 1.26151 5.04836 1.36445C5.19902 1.46642 5.34093 1.58296 5.46989 1.71132C5.59857 1.84038 5.71572 1.98153 5.8174 2.13239C5.92062 2.28409 6.00896 2.44691 6.08018 2.61582C6.15308 2.78738 6.20872 2.96741 6.24629 3.15051C6.28482 3.33765 6.30443 3.53046 6.30443 3.72328ZM2.4172 1.52573C1.73871 1.84566 1.23232 2.46996 1.07442 3.22234C1.13856 3.22289 2.15246 3.23568 3.32063 2.92574C2.89952 2.17864 2.44962 1.56894 2.4172 1.52573ZM3.52221 3.29986C2.26945 3.67437 1.06733 3.64742 1.02421 3.64576C1.0235 3.67188 1.02225 3.69715 1.02225 3.72328C1.02225 4.34742 1.25806 4.91643 1.64564 5.34667C1.64481 5.34541 2.31064 4.16587 3.62363 3.74189C3.65534 3.73134 3.68763 3.72188 3.71962 3.71272C3.65856 3.57464 3.5919 3.43628 3.52221 3.29986ZM5.06212 1.89984C4.63377 1.52267 4.07132 1.29389 3.4553 1.29389C3.25761 1.29389 3.06577 1.31778 2.882 1.36196C2.91844 1.41086 3.37545 2.01626 3.79155 2.77918C4.7096 2.43551 5.05613 1.90873 5.06212 1.89984ZM3.88547 4.1153C3.88005 4.1171 3.87463 4.11864 3.86933 4.12058C2.43379 4.62031 1.965 5.6274 1.95993 5.6384C2.37298 5.95915 2.89105 6.15267 3.45532 6.15267C3.79225 6.15267 4.1132 6.08417 4.40521 5.96013C4.36918 5.74786 4.22783 5.00382 3.88547 4.1153ZM4.81491 5.73814C5.36122 5.37001 5.74921 4.78545 5.85745 4.10834C5.80737 4.09223 5.12666 3.87704 4.34134 4.00277C4.66047 4.87852 4.79014 5.59173 4.81491 5.73814ZM3.97882 3.14121C4.03529 3.25707 4.08998 3.37499 4.14047 3.4935C4.15842 3.53602 4.17595 3.5777 4.19306 3.61936C5.02888 3.51434 5.85232 3.69104 5.88752 3.69826C5.88196 3.12231 5.67564 2.59373 5.33426 2.1799C5.32966 2.18641 4.93943 2.74945 3.97882 3.14121Z" fill="white"/>
</svg>
