<svg width="6" height="5" viewBox="0 0 6 5" fill="none" xmlns="http://www.w3.org/2000/svg">
<path fill-rule="evenodd" clip-rule="evenodd" d="M3.321 1.72727L3.33221 1.91211L3.14539 1.88948C2.46534 1.80271 1.87123 1.50848 1.3668 1.01431L1.12019 0.769117L1.05667 0.950185C0.922154 1.35382 1.00809 1.78008 1.28833 2.06677C1.43779 2.22521 1.40417 2.24784 1.14635 2.15353C1.05667 2.12336 0.978202 2.10072 0.970729 2.11204C0.944573 2.13845 1.03425 2.48172 1.10524 2.61752C1.20239 2.80614 1.40043 2.99098 1.61715 3.10037L1.80024 3.18713L1.58352 3.19091C1.37427 3.19091 1.3668 3.19468 1.38922 3.2739C1.46395 3.51909 1.75914 3.77938 2.08795 3.89255L2.31961 3.97176L2.11784 4.09247C1.81892 4.266 1.46769 4.36408 1.11645 4.37162C0.94831 4.37539 0.810059 4.39048 0.810059 4.4018C0.810059 4.43952 1.26591 4.65077 1.53121 4.73376C2.32709 4.97895 3.27243 4.87333 3.98237 4.45461C4.4868 4.1566 4.99123 3.56436 5.22663 2.99098C5.35367 2.68542 5.48071 2.12713 5.48071 1.8593C5.48071 1.68577 5.49192 1.66314 5.70117 1.45567C5.82447 1.33496 5.94031 1.20293 5.96273 1.1652C6.00009 1.09353 5.99635 1.09353 5.80579 1.15766C5.48819 1.27083 5.44335 1.25574 5.60028 1.08599C5.71611 0.965274 5.85437 0.746483 5.85437 0.682355C5.85437 0.671038 5.79832 0.689899 5.7348 0.72385C5.66754 0.761572 5.51808 0.818156 5.40598 0.852106L5.20421 0.916235L5.02112 0.79175C4.92024 0.72385 4.77825 0.648404 4.70352 0.625771C4.51295 0.572959 4.2215 0.580504 4.04962 0.64086C3.58256 0.810611 3.28737 1.24819 3.321 1.72727Z" fill="white"/>
</svg>
