<svg width="7" height="5" viewBox="0 0 7 5" fill="none" xmlns="http://www.w3.org/2000/svg">
<path fill-rule="evenodd" clip-rule="evenodd" d="M5.73272 0.890823C5.9779 0.9581 6.17098 1.15633 6.23651 1.40807C6.35558 1.86431 6.35558 2.81627 6.35558 2.81627C6.35558 2.81627 6.35558 3.76819 6.23651 4.22447C6.17098 4.47621 5.9779 4.67444 5.73272 4.74175C5.28841 4.86398 3.50659 4.86398 3.50659 4.86398C3.50659 4.86398 1.72477 4.86398 1.28042 4.74175C1.03525 4.67444 0.842162 4.47621 0.776635 4.22447C0.657593 3.76819 0.657593 2.81627 0.657593 2.81627C0.657593 2.81627 0.657593 1.86431 0.776635 1.40807C0.842162 1.15633 1.03525 0.9581 1.28042 0.890823C1.72477 0.768555 3.50659 0.768555 3.50659 0.768555C3.50659 0.768555 5.28841 0.768555 5.73272 0.890823ZM2.97241 2.01497V3.79559L4.3969 2.90532L2.97241 2.01497Z" fill="white"/>
</svg>
